<svg width="35" height="35" viewBox="0 0 35 35" fill="none" xmlns="http://www.w3.org/2000/svg">
<g id="compare_FILL0_wght400_GRAD0_opsz48 2">
<path id="Vector" d="M15.3854 33.5417V30.625H6.5625C5.97917 30.625 5.46875 30.4062 5.03125 29.9687C4.59375 29.5312 4.375 29.0208 4.375 28.4375V6.56249C4.375 5.97916 4.59375 5.46874 5.03125 5.03124C5.46875 4.59374 5.97917 4.37499 6.5625 4.37499H15.3854V1.45833H17.5729V33.5417H15.3854ZM6.5625 26.9062H15.3854V16.8073L6.5625 26.9062ZM19.7604 30.625V16.9531L28.4375 26.9062V6.56249H19.7604V4.37499H28.4375C29.0208 4.37499 29.5312 4.59374 29.9688 5.03124C30.4062 5.46874 30.625 5.97916 30.625 6.56249V28.4375C30.625 29.0208 30.4062 29.5312 29.9688 29.9687C29.5312 30.4062 29.0208 30.625 28.4375 30.625H19.7604Z" fill="#D1D523"/>
</g>
</svg>
