<svg width="18" height="18" viewBox="0 0 18 18" fill="none" xmlns="http://www.w3.org/2000/svg">
<path id="copyright-square" d="M14.625 0H3.375C1.125 0 0 1.125 0 3.375V14.625C0 16.875 1.125 18 3.375 18H14.625C16.875 18 18 16.875 18 14.625V3.375C18 1.125 16.875 0 14.625 0ZM9.13989 11.75C10.0349 11.75 10.8731 11.31 11.3831 10.573C11.6201 10.233 12.086 10.1461 12.427 10.3831C12.768 10.6191 12.8529 11.086 12.6169 11.426C11.8259 12.568 10.5259 13.249 9.13892 13.249C6.79492 13.249 4.88892 11.342 4.88892 8.99902C4.88892 6.65602 6.79492 4.74902 9.13892 4.74902C10.5259 4.74902 11.8259 5.43102 12.6169 6.57202C12.8519 6.91202 12.767 7.37999 12.427 7.61499C12.086 7.85299 11.6201 7.76505 11.3831 7.42505C10.8731 6.68805 10.0339 6.24805 9.13989 6.24805C7.62289 6.24805 6.38989 7.48105 6.38989 8.99805C6.38989 10.515 7.62289 11.75 9.13989 11.75Z" fill="black"/>
</svg>
