<svg width="31" height="31" viewBox="0 0 31 31" fill="none" xmlns="http://www.w3.org/2000/svg">
<path id="eye" d="M20.2361 15.5C20.2361 18.8591 18.1126 21.5893 15.5 21.5893C12.8874 21.5893 10.7639 18.8591 10.7639 15.5C10.7639 14.7272 10.8878 13.9942 11.0927 13.3122C11.4268 13.6532 11.8299 13.8879 12.2898 13.8879C13.3696 13.8879 14.2462 12.7609 14.2462 11.3725C14.2462 10.7813 14.0636 10.263 13.7984 9.83346C14.3288 9.56996 14.8989 9.41071 15.5 9.41071C18.1126 9.41071 20.2361 12.1409 20.2361 15.5ZM30.2973 18.7706C28.1842 23.3188 23.4377 31 15.5 31C7.56231 31 2.81582 23.3188 0.702663 18.7706C-0.234221 16.7556 -0.234221 14.2444 0.702663 12.2294C2.81582 7.68124 7.56231 0 15.5 0C23.4377 0 28.1842 7.68124 30.2973 12.2294C31.2342 14.2444 31.2342 16.7556 30.2973 18.7706ZM22.8194 15.5C22.8194 10.3119 19.5369 6.08929 15.5 6.08929C11.4631 6.08929 8.18059 10.3119 8.18059 15.5C8.18059 20.6881 11.4631 24.9107 15.5 24.9107C19.5369 24.9107 22.8194 20.6881 22.8194 15.5Z" fill="#25314C"/>
</svg>
