<svg width="30" height="30" viewBox="0 0 30 30" fill="none" xmlns="http://www.w3.org/2000/svg">
<g id="g887">
<path id="horizontal" d="M29.9999 12.3557H-0.00012207V17.397H29.9999V12.3557Z" fill="#CC0000"/>
<path id="vertical" d="M16.8749 0H13.1249V30H16.8749V0Z" fill="#CC0000"/>
<g id="g866">
<path id="path1167" d="M5.26282 2.27448C6.1916 4.79831 6.39988 7.45448 5.26282 9.83652H7.85779C6.92337 6.75499 7.03032 4.65652 7.85779 2.27448H5.26282Z" fill="#CC0000"/>
<path id="path865" d="M3.75122 7.80214C5.62859 6.55353 7.6044 6.27354 9.37629 7.80214V4.3136C7.08408 5.56978 5.52312 5.426 3.75122 4.3136V7.80214Z" fill="#CC0000"/>
</g>
<g id="g878">
<path id="path879" d="M5.26282 19.9185C6.1916 22.4424 6.39988 25.0985 5.26282 27.4806H7.85779C6.92337 24.399 7.03032 22.3006 7.85779 19.9185H5.26282Z" fill="#CC0000"/>
<path id="path880" d="M3.75122 25.4462C5.62859 24.1976 7.6044 23.9176 9.37629 25.4462V21.9577C7.08408 23.2138 5.52312 23.0701 3.75122 21.9577V25.4462Z" fill="#CC0000"/>
</g>
<g id="g881">
<path id="path882" d="M22.1373 19.9185C23.0661 22.4424 23.2744 25.0985 22.1373 27.4806H24.7323C23.7979 24.399 23.9048 22.3006 24.7323 19.9185H22.1373Z" fill="#CC0000"/>
<path id="path883" d="M20.6257 25.4462C22.5031 24.1976 24.4789 23.9176 26.2508 25.4462V21.9577C23.9586 23.2138 22.3976 23.0701 20.6257 21.9577V25.4462Z" fill="#CC0000"/>
</g>
<g id="g884">
<path id="path885" d="M22.1373 2.27448C23.0661 4.79831 23.2744 7.45448 22.1373 9.83652H24.7323C23.7979 6.75499 23.9048 4.65652 24.7323 2.27448H22.1373Z" fill="#CC0000"/>
<path id="path886" d="M20.6257 7.80214C22.5031 6.55353 24.4789 6.27354 26.2508 7.80214V4.3136C23.9586 5.56978 22.3976 5.426 20.6257 4.3136V7.80214Z" fill="#CC0000"/>
</g>
</g>
</svg>
