<svg width="35" height="35" viewBox="0 0 35 35" fill="none" xmlns="http://www.w3.org/2000/svg">
<path id="heart" d="M33.9325 15.2341L33.9325 15.2341C34.61 11.5369 34.1995 7.8872 32.7409 5.19113C31.3025 2.53248 28.8355 0.768193 25.232 0.750106L25.2317 0.750105C22.6437 0.736302 20.9078 2.09877 19.7866 3.52741C19.2252 4.24286 18.829 4.96311 18.5733 5.50585C18.446 5.77627 18.3547 6.00003 18.2961 6.15358C18.2668 6.23028 18.2458 6.28924 18.2326 6.32749C18.226 6.34661 18.2213 6.36053 18.2186 6.36889L18.216 6.37683L18.2159 6.37718L18.2158 6.37736L18.2157 6.37775L18.2156 6.37811L17.5006 8.65122L16.7855 6.37817L16.7854 6.37781L16.7853 6.37742L16.7852 6.37725L16.7851 6.3769L16.7825 6.36896C16.7797 6.36061 16.7751 6.3467 16.7685 6.32759C16.7552 6.28935 16.7342 6.23042 16.705 6.15375C16.6464 6.00026 16.5551 5.77657 16.4277 5.50624C16.1721 4.96367 15.7759 4.24361 15.2143 3.52828C14.0929 2.09993 12.3565 0.737236 9.7672 0.750106L33.9325 15.2341ZM33.9325 15.2341C32.8384 21.2088 28.7027 25.9742 24.7489 29.2802C22.7812 30.9256 20.8815 32.1901 19.4739 33.0428C18.7707 33.4689 18.1918 33.7913 17.7905 34.0063C17.68 34.0655 17.5829 34.1166 17.5005 34.1594M33.9325 15.2341L17.5005 34.1594M17.5005 34.1594C17.4181 34.1166 17.3211 34.0655 17.2105 34.0063C16.8093 33.7913 16.2303 33.4689 15.5271 33.0428C14.1195 32.19 12.2197 30.9255 10.2517 29.2802C6.29765 25.9742 2.16145 21.2088 1.06643 15.2341L17.5005 34.1594ZM2.26448 5.19078C0.803599 7.88684 0.389058 11.5365 1.06642 15.234L2.26448 5.19078ZM2.26448 5.19078C3.70535 2.53165 6.17273 0.768201 9.76715 0.750106L2.26448 5.19078Z" fill="white" stroke="black" stroke-width="1.5"/>
</svg>
