<svg width="30" height="30" viewBox="0 0 30 30" fill="none" xmlns="http://www.w3.org/2000/svg">
<g id="phone-flip">
<path id="phone-flip_2" d="M11.414 18.4926L12.8077 20.5738C16.3077 19.1113 19.1077 16.3 20.5714 12.7913L18.495 11.41C17.36 10.655 17.0139 9.14381 17.7089 7.97006L19.6626 4.6713C20.0688 3.98505 20.8637 3.63129 21.6462 3.78754L21.6676 3.79128C24.8676 4.43128 26.9152 7.64756 26.0502 10.7938C24.0052 18.2338 18.2063 24.0151 10.7826 26.0526C7.63634 26.9163 4.42521 24.8663 3.78521 21.6676C3.62896 20.8876 3.98131 20.095 4.66381 19.6875L7.96765 17.7176C9.1414 17.0188 10.654 17.3588 11.414 18.4926Z" fill="#004EFF"/>
</g>
</svg>
